<?xml version="1.0" encoding="UTF-8"?>
<svg xmlns="http://www.w3.org/2000/svg" viewBox="0 0 40 40" width="40" height="40">
  <!-- Outer green circle (slight opacity like in the UI) -->
  <path d="M20 5c-8.284 0-15 6.716-15 15 0 8.284 6.716 15 15 15s15-6.716 15-15c0-8.284-6.716-15-15-15z" fill="#4CAF50" fill-opacity="0.9"/>
  <!-- Inner cream circle -->
  <path d="M20 8c6.627 0 12 5.373 12 12s-5.373 12-12 12S8 26.627 8 20 13.373 8 20 8z" fill="#FFF8E7"/>
  <!-- Leaf-like shape -->
  <path d="M15 18c1.5-2 4-3 5-3s3.5 1 5 3c0 3-2.24 5.44-5 5.44S15 21 15 18z" fill="#4CAF50"/>
  <!-- Small top accent -->
  <path d="M22 12c1 0 2 1 3 2l-1 1c-0.5-0.5-1-1-2-1s-1.5 0.5-2 1l-1-1c1-1 2-2 3-2z" fill="#4CAF50"/>
</svg>
